<svg xmlns="http://www.w3.org/2000/svg" viewBox="0 0 400 400" xml:space="preserve" width="400px" height="400px">	<style type="text/css">		.dark-shade{fill:#bbbfc3;}		.clear{fill:#fad730;}		svg{fill:#253746;}	</style>	<path class="clear" d="m137.8 332.1c-18 17.9-49.9 25.8-110.9 38.7 60-29.3 50.7-65.4 50.7-65.4l-3-3.3c-44.7-27.3-73.3-69-73.3-115.7 0.1-82.3 89-149.1 198.7-149.1s198.6 66.8 198.6 149.1-88.9 149.2-198.6 149.2c-20.5 0-40.3-2.3-58.9-6.7l-3.3 3.2z"></path>	<path d="m16.2 374.5l10.1-4.9c30.6-14.9 42.5-31.6 47.2-43 4.4-10.8 3.2-18.9 2.9-20.5l-2.6-2.8c-46.9-28.8-73.8-71.4-73.8-116.8 0-40.3 20.9-78.1 58.7-106.6 37.8-28.3 87.9-44 141.3-44 53.3 0 103.5 15.6 141.3 44 37.9 28.4 58.7 66.3 58.7 106.6s-20.9 78.1-58.7 106.6c-37.8 28.3-87.9 44-141.3 44-19.9 0-39.6-2.2-58.5-6.5l-2.7 2.6c-18.8 18.6-52.9 26.6-111.6 39.1l-11 2.2zm183.8-335.8c-108.7 0-197.2 66.3-197.2 147.7 0 44.5 26.5 86.3 72.6 114.5l0.2 0.1 3.3 3.7 0.1 0.3c0.1 0.4 2.4 9.6-2.9 22.6-4.3 10.6-14.7 25.6-39.5 39.7 56.6-12.2 84-20 100.4-36.3l3.8-3.7 0.7 0.2c18.9 4.4 38.6 6.6 58.6 6.6 108.7 0 197.2-66.3 197.2-147.7-0.1-81.4-88.6-147.7-197.3-147.7z"></path>	<polygon class="clear" points="67.6 59.5 284.7 70.2 285 98.8 297.1 97.6 301.5 98.5 302.5 66.3 327.8 59.9 345.2 65.3 346.2 264.2 327.4 266.2 317.5 265.3 317.5 267.6 296.5 270.3 285.5 268.9 285.5 271.7 261.7 275.2 249 273.1 249 276.5 221.5 280.2 207.2 277.5 207.1 282.1 175.5 286.2 150.2 279.8 150.2 265.9 67.3 272.3"></polygon>	<rect transform="matrix(.9975 -.070247 .070247 .9975 -17.54 18.577)" x="249" y="257.9" width="12.8" height="1.6"></rect>	<rect transform="matrix(.9975 -.07029 .07029 .9975 -17.854 15.714)" x="207.1" y="260.7" width="14.4" height="1.6"></rect>	<rect transform="matrix(.9997 -.024966 .024966 .9997 -4.5803 5.4098)" x="207.2" y="185.3" width="14.4" height="1.6"></rect>	<rect transform="matrix(.9997 -.025008 .025008 .9997 -4.5493 6.4439)" x="249" y="184.3" width="12.8" height="1.6"></rect>	<path d="m66.7 58.4v214.4l108.9-7.7-0.1-1.6-17.8 1.3v-34.2l17.9-0.7-0.1-1.6-17.8 0.7v-40.5l17.8-0.4v-1.6l-17.8 0.4v-41.4l44-0.6v26h1.6v-26.1l40.8-0.6v2.5h1.6v-2.5l16-0.2v-1.6l-16 0.2v-38.1l39 0.1v152h1.6v-188l-219.6-10.2zm43.7 209.7l-42.1 3v-36.9l42.1-1.7v35.6zm0-37.3l-42.1 1.7v-41.9l42.1-1.1v41.3zm0-42.9l-42.1 1.1v-42.4l42.1-0.6v41.9zm0-43.5l-42.1 0.6v-41.2l42.1 0.2v40.4zm0-42.2l-42.1-0.2v-42l42.1 2v40.2zm45.7 162.7l-44 3.1v-35.6l44-1.8v34.3zm0-35.9l-44 1.8v-41.2l44-1.1v40.5zm0-42.2l-44 1.1v-41.9l44-0.6v41.4zm0-43l-44 0.6v-40.5l44 0.2v39.7zm0-41.4l-44-0.2v-40.1l44 2v38.3zm45.6 40.7l-44 0.6v-39.7l44 0.2v38.9zm0-40.5l-44-0.2v-38.2l44 2v36.4zm42.4 39.9l-40.8 0.6v-38.9l40.8 0.1v38.2zm0-39.8l-40.8-0.1v-36.2l40.8 1.9v34.4zm40.6 0.2l-39-0.1v-34.5l39 1.8v32.8z"></path>	<polygon points="111.9 275.6 111.2 271.9 110.5 275.7 59.8 279.3 59.8 234.4 64.4 233.5 59.8 233 59.8 190.7 64.4 189.9 59.8 189.3 59.8 146.6 64.4 145.8 59.8 145.2 59.8 103.6 64.4 102.9 59.8 102.2 59.8 59 64.4 58.6 59.1 57.5 58.2 57.3 58.2 58.3 58.2 280.2 58.2 281.1 59.1 281 175.5 272.8 175.4 271.2"></polygon>	<rect transform="matrix(.9992 -.040612 .040612 .9992 -9.0584 8.893)" x="207.2" y="226.6" width="14.4" height="1.6"></rect>	<rect transform="matrix(.9992 -.040994 .040994 .9992 -9.039 10.658)" x="249" y="224.9" width="12.8" height="1.6"></rect>	<polygon class="dark-shade" points="150.4 279.7 175.5 285.8 175.5 169.3 150.4 171.9"></polygon>	<polygon class="dark-shade" points="221.5 144.2 221.5 280.2 207.2 277.5 207.2 171.1 194.7 170.4 194.7 148.3"></polygon>	<polygon class="dark-shade" points="261.7 131.6 261.7 275.2 249 273.1 249 147.1 231.6 145.2 231.6 136.6"></polygon>	<polygon class="dark-shade" points="296.5 97 296.5 270.3 285.5 268.9 285.5 134.8 267.8 132.4 267.8 102.7"></polygon>	<polygon class="dark-shade" points="327.3 59.2 327.3 266.4 317.5 265.3 317.5 101.5 302 98.1 302 65.9"></polygon>	<path d="m346.2 64.6l-18.4-5.7v-0.3l-0.5 0.1-0.5-0.2v0.3l-25.2 6.6v32l-4.5-1v-0.2l-0.4 0.1-0.4-0.1v0.2l-28.9 5.8v29.5l-5.1-0.7-0.5 0.1-0.5-0.1v0.1l-30.1 5.1v8.5l-9.1-1v-0.1l-0.5 0.1-0.5-0.1v0.1l-26.8 4.1v22l-18.3-1v-0.1l-0.5 0.1h-0.5v0.1l-25.1 2.7v108.6l0.4 0.1 24.7 6.5v0.2l0.5-0.1 0.5 0.1v-0.2l31.7-4.2v-4.6l13.4 2.6v0.2l0.5-0.1 0.5 0.1v-0.2l27.4-3.6v-3.3l12.8 2.1v-0.4l23.8-3.1v-2.8l10.1 1.3v0.1l0.4-0.1 0.4 0.1v-0.1l21-2.8v-2.1l9.8 1.1v-0.3l18.4-2.4v-199.7zm-50.2 33v172.2l-10-1.3v-134l-10.3-1.4 3.9-0.7-5.8 0.5-5.6-0.8v-3l11.4-1.9-11.4 1.3v-4.5l11.5-2-11.5 1.4v-4.5l11.4-2.4-11.4 1.8v-4.5l11.4-2.4-11.4 1.8v-4.5l11.4-2.4-11.4 1.8v-4.8l27.8-5.7zm-34.8 34.5v142.4l-11.8-1.9v-126l-11.2-1.2 5.4-0.5-7.9 0.3-3.7-0.4v-3.4l11.6-1.9-11.6 1.2v-3.7l29.2-4.9zm-40.1 12.6v134.8l-13.4-2.6v-106.3l-9.5-0.5 9-0.8-11.9 0.4v-4.7l11.9-1.1-11.9 0.5v-4.7l11.9-1.9-11.9 1.3v-4.7l11.9-1.9-11.9 1.3v-5.1l25.8-4zm-46.1 25.1v115.4l-24.1-5.9v-5.6l14.9 2.6-14.9-3.3v-5l14.9 2.2-14.9-2.8v-4.9l14.9 1.9-14.9-2.6v-5l14.9 1.4-14.9-2v-5l14.9 1-14.9-1.6v-5l14.9 0.3-14.9-0.9v-4.9l14.9 0.2-14.9-0.9v-5l14.9-0.3-14.9-0.3v-5l15.3-0.7-15.3 0.1v-4.9l14.9-0.8-14.9 0.2v-5l14.9-1.1-14.9 0.5v-4.9l14.9-1.1-14.9 0.5v-4.9l14.9-1.1-14.9 0.5v-5.1l14.9-1.1-14.9 0.5v-4.9l14.9-1.1-14.9 0.5v-4.9l14.9-1.1-14.9 0.5v-5l14.9-1.9-14.9 1.2v-4.9l14.9-1.9-14.9 1.2v-5.7l24.1-2.6zm31.7 111.9l-30.7 4v-115.9l18.7 1.1 12 0.7v110.1zm41.8-5.6l-26.5 3.5v-134.9l9.1 1 17.4 1.8v128.6zm36.5-4.8l-22.8 3v-142.2l5.1 0.7 17.7 2.4v136.1zm41.8-211.4v206l-8.8-1v-163.8l-8-1.7 7.4-1.6-8.8 1.3-6-1.3v-2.5l14.9-3.3-14.9 2.6v-5.3l14.9-3.4-14.9 2.8v-5.3l14.9-4.1-14.9 3.4v-5.3l14.9-4.1-14.9 3.4v-5.3l14.9-4.1-14.9 3.4v-4.6l24.2-6.2zm-9.8 207.2l-19.9 2.6v-172.1l4.4 1 15.5 3.3v165.2zm28.2-3.7l-17.4 2.3v-205.8l17.4 5.4v198.1z"></path>	<polygon points="295.2 42.7 295.2 25.5 278.4 34.3 284.2 37.9 238.2 112.9 214 88.6 171.8 154.9 140.8 135.2 67 268.4 67.5 271.9 69.8 272.3 142.3 141.2 173.1 160.7 214.7 95.4 239 119.7 288.2 39.5"></polygon></svg>